<?xml version="1.0" encoding="UTF-8"?>
<svg width="752pt" height="752pt" version="1.1" viewBox="0 0 752 752" xmlns="http://www.w3.org/2000/svg">
 <path d="m519.66 232.34c-2.7773-2.7734-6.5391-4.332-10.465-4.332-3.9219 0-7.6875 1.5586-10.461 4.332l-241.13 241.12v-112.27c0-5.2891-2.8203-10.176-7.3984-12.816-4.5781-2.6445-10.223-2.6445-14.801 0-4.5781 2.6406-7.3984 7.5273-7.3984 12.816v147.99c0 3.9258 1.5586 7.6914 4.3359 10.465 2.7734 2.7773 6.5391 4.3359 10.465 4.3359h147.99c5.2891 0 10.172-2.8203 12.816-7.3984 2.6445-4.582 2.6445-10.223 0-14.801-2.6445-4.5781-7.5273-7.3984-12.816-7.3984h-112.27l241.13-241.13c2.7734-2.7734 4.332-6.5391 4.332-10.461 0-3.9258-1.5586-7.6914-4.332-10.465z" fill="white"/>
</svg>
