<?xml version="1.0" encoding="UTF-8"?>
<svg width="752pt" height="752pt" version="1.1" viewBox="120 120 500 500" xmlns="http://www.w3.org/2000/svg">
 <path d="m288.93 288.93c5.5469-5.5469 14.543-5.5469 20.094 0l66.973 66.973 66.973-66.973c5.5469-5.5469 14.543-5.5469 20.094 0 5.5469 5.5469 5.5469 14.543 0 20.094l-66.973 66.973 66.973 66.973c5.5469 5.5469 5.5469 14.543 0 20.094-5.5469 5.5469-14.543 5.5469-20.094 0l-66.973-66.977-66.973 66.977c-5.5469 5.5469-14.543 5.5469-20.094 0-5.5469-5.5469-5.5469-14.543 0-20.094l66.973-66.973-66.973-66.973c-5.5469-5.5469-5.5469-14.543 0-20.094z" fill="white"/>
</svg>
