<?xml version="1.0" encoding="UTF-8"?>
<svg width="752pt" height="752pt" version="1.1" viewBox="0 0 752 752" xmlns="http://www.w3.org/2000/svg">
 <g>
  <path d="m376 461.05c44.457 0 80.703-36.242 80.703-81.184v-135.79c0-44.457-36.242-80.699-80.703-80.699-44.457 0-80.703 36.242-80.703 80.703v136.27c0.003906 44.457 36.246 80.699 80.703 80.699z" fill="#060dcfc7"/>
  <path d="m492.95 330.58h-27.062v28.996h12.562v40.109c0 37.691-45.91 83.117-102.45 83.117-56.539 0-102.45-45.91-102.45-102.45v-20.781h12.082v-28.996h-26.578c-8.2148 0-14.496 6.2812-14.496 14.496v35.277c0 67.656 51.223 123.23 116.95 130.48l0.003906 48.812h-43.008c-8.2148 0-14.496 6.2812-14.496 14.496 0 8.2148 6.2812 14.496 14.496 14.496h115.01c8.2148 0 14.496-6.2812 14.496-14.496 0-8.2148-6.2812-14.496-14.496-14.496h-43.008v-48.809c28.512-2.8984 55.574-14.98 77.801-34.793 24.645-22.23 39.145-49.773 39.145-76.836v-54.125c0-8.2148-6.2852-14.496-14.5-14.496z" fill="#060dcfc7"/>
 </g>
</svg>
