<?xml version="1.0" encoding="UTF-8"?>
<svg width="752pt" height="752pt" version="1.1" viewBox="0 0 752 752" xmlns="http://www.w3.org/2000/svg">
 <g>
  <path d="m529.91 509.2c41.438-29.598 68.078-78.438 68.078-133.2 0-75.477-53.277-143.55-128.75-158.36-7.3984-1.4805-16.281 2.9609-17.758 11.84-1.4805 8.8789 2.9609 16.281 11.84 17.758 60.676 11.844 105.07 66.602 105.07 128.76 0 45.879-23.68 87.316-60.676 111l-28.117-28.117c26.641-19.238 42.918-50.316 42.918-84.355 0-42.918-28.117-82.875-68.078-97.676-7.3984-2.9609-16.281 1.4805-19.238 8.8789-2.9609 7.3984 1.4805 16.281 8.8789 19.238 29.598 10.359 48.84 38.477 48.84 69.559 0 25.16-13.32 48.84-35.52 62.156l-51.801-51.797v-140.6c0-8.8789-7.4023-16.277-16.281-16.277h-37c-4.4414 0-7.3984 1.4805-10.359 2.9609l-48.836 41.438-113.96-113.96c-5.918-5.918-14.801-5.918-20.719 0s-5.918 14.801 0 20.719l414.38 414.38c2.9609 2.9609 7.3984 4.4414 10.359 4.4414 2.9609 0 7.3984-1.4805 10.359-4.4414 5.918-5.918 5.918-14.801 0-20.719z" fill="white"/>
  <path d="m451.48 524c1.4805 7.3984 7.3984 11.84 14.801 11.84h2.9609c4.4414-1.4805 8.8789-1.4805 11.84-2.9609l-23.68-23.68c-4.4414 2.9609-7.3984 8.8789-5.9219 14.801z" fill="white"/>
  <path d="m245.77 302h-57.715c-10.363 0-19.242 8.8789-19.242 19.238v109.52c0 10.359 8.8789 19.242 19.242 19.242h57.719c7.3984 0 14.801 2.9609 22.199 7.3984l75.477 62.156c2.9609 2.9609 5.918 2.9609 10.359 2.9609h37c8.8789 0 16.281-7.3984 16.281-16.281v-51.797l-155.4-152.43h-5.9219z" fill="white"/>
 </g>
</svg>
