<?xml version="1.0" encoding="UTF-8"?>
<svg width="752pt" height="752pt" version="1.1" viewBox="0 0 752 752" xmlns="http://www.w3.org/2000/svg">
 <path d="m391.65 184.46c7.7031-7.707 20.199-7.707 27.906 0l59.195 59.195c7.707 7.707 7.707 20.199 0 27.906l-59.195 59.199c-7.707 7.7031-20.203 7.7031-27.906 0-7.707-7.707-7.707-20.199 0-27.906l25.512-25.512h-31.293c-70.004 0-128.26 58.254-128.26 128.26 0 70.004 58.258 128.26 128.26 128.26 70.004 0 128.26-58.258 128.26-128.26 0-10.898 8.8359-19.734 19.734-19.734 10.898 0 19.73 8.8359 19.73 19.734 0 91.801-75.926 167.73-167.73 167.73-91.801 0-167.73-75.926-167.73-167.73 0-91.801 75.926-167.73 167.73-167.73h31.293l-25.512-25.512c-7.707-7.707-7.707-20.203 0-27.906z" fill="white"/>
</svg>
