<?xml version="1.0" encoding="UTF-8"?>
<svg width="752pt" height="752pt" version="1.1" viewBox="0 0 752 752" xmlns="http://www.w3.org/2000/svg">
 <g>
  <path d="m389.32 228.01h-37c-4.4414 0-7.3984 1.4805-10.359 2.9609l-75.477 62.156c-5.918 5.918-13.316 8.8789-20.719 8.8789h-57.715c-10.363 0-19.242 8.8789-19.242 19.238v109.52c0 10.359 8.8789 19.242 19.242 19.242h57.719c7.3984 0 14.801 2.9609 22.199 7.3984l75.477 62.156c2.9609 2.9609 5.918 2.9609 10.359 2.9609h37c8.8789 0 16.281-7.3984 16.281-16.281l-0.003907-261.95c-1.4805-8.8789-8.8828-16.277-17.762-16.277z" fill="white"/>
  <path d="m466.28 535.84c-7.3984 0-13.32-4.4414-14.801-11.84-1.4805-7.3984 2.9609-16.281 11.84-17.758 60.68-13.32 105.08-68.078 105.08-130.24 0-62.156-44.398-116.91-105.07-130.23-7.4023-1.4805-13.32-8.8789-10.363-17.758 1.4805-7.3984 10.359-13.32 17.758-11.84 73.996 16.281 128.75 82.875 128.75 158.36 0 76.957-54.758 143.55-128.75 159.83-2.957 1.4805-4.4375 1.4805-4.4375 1.4805z" fill="white"/>
  <path d="m450 475.16c-5.918 0-11.84-4.4414-13.32-10.359-2.9609-7.3984 1.4805-16.281 8.8789-19.238 29.598-10.359 48.84-38.477 48.84-69.559 0-31.078-19.238-59.199-48.84-69.559-7.3984-2.9609-11.84-11.84-8.8789-19.238 2.9609-7.3984 11.84-11.84 19.238-8.8789 41.438 14.801 68.078 53.277 68.078 97.676s-28.117 82.875-69.559 97.676c-1.4805 0-2.9609 1.4805-4.4375 1.4805z" fill="white"/>
 </g>
</svg>
